# xmcd
#
# Track frame offsets:
#	150
#	16710
#	30930
#	46097
#	60117
#	79882
#	94905
#	110967
#	122752
#	139967
#	153845
#	173570
#	189507
#	206062
#
# Disc length: 3007 seconds
#
# Revision: 0
# Processed by: cddbd v1.5.2PL0 Copyright (c) Steve Scherf et al.
# Submitted via: audiograbber 1.83.01
#
DISCID=ac0bbd0e
DTITLE=Jerry Lee Lewis  - Heartbreak
DYEAR=1996
DGENRE=Country
TTITLE0=What's Made Milwaukee Famous
TTITLE1=Careless Hands
TTITLE2=Who Will The Next Fool Be?
TTITLE3=Touching Home
TTITLE4=More To Love Than This
TTITLE5=Cold, Cold Heart
TTITLE6=You Win Again
TTITLE7=Your Cheatin' Heart
TTITLE8=I Can't Stop Loving You
TTITLE9=Another Place, Another Time
TTITLE10=39 And Holding
TTITLE11=She Even Woke Me Up To Say Goodbye
TTITLE12=I Wished I Was 18  Again
TTITLE13=Who Is Going To Play This Ole Piano?
EXTD=CARLY Country. CPCD 8175. Made in the EU. Recorded live at The Palomino, V
EXTD=an Nuys, California, 1979-81 and 1985.
EXTT0=
EXTT1=
EXTT2=
EXTT3=
EXTT4=
EXTT5=
EXTT6=
EXTT7=
EXTT8=
EXTT9=
EXTT10=
EXTT11=
EXTT12=
EXTT13=
PLAYORDER=
